<svg width="232" height="63" viewBox="0 0 232 63" fill="none" xmlns="http://www.w3.org/2000/svg">
<path d="M40.8528 48.528C37.5888 48.528 34.7728 47.776 32.4048 46.272C30.0688 44.768 28.2608 42.704 26.9808 40.08C25.7328 37.424 25.1088 34.384 25.1088 30.96C25.1088 28.4 25.5248 26.048 26.3568 23.904C27.1888 21.76 28.3408 19.888 29.8128 18.288C31.2848 16.688 32.9808 15.456 34.9008 14.592C36.8528 13.696 38.9328 13.248 41.1408 13.248C43.0928 13.248 44.6928 13.472 45.9408 13.92C47.2208 14.336 48.1808 14.704 48.8208 15.024C49.2368 15.216 49.6208 15.392 49.9728 15.552C50.3248 15.68 50.5648 15.744 50.6928 15.744C51.0448 15.744 51.3328 15.616 51.5568 15.36C51.7808 15.072 51.9248 14.592 51.9888 13.92H53.1888L53.0928 19.536L53.1888 25.152H51.9888C51.5088 21.824 50.3568 19.248 48.5328 17.424C46.7088 15.6 44.2928 14.688 41.2848 14.688C39.1728 14.688 37.3968 15.12 35.9568 15.984C34.5168 16.816 33.3648 17.984 32.5008 19.488C31.6368 20.96 30.9968 22.688 30.5808 24.672C30.1968 26.624 30.0048 28.72 30.0048 30.96C30.0048 34.32 30.3568 37.2 31.0608 39.6C31.7968 42 32.9808 43.856 34.6128 45.168C36.2768 46.448 38.5008 47.088 41.2848 47.088C43.3648 47.088 45.1728 46.608 46.7088 45.648C48.2448 44.688 49.4768 43.408 50.4048 41.808C51.3648 40.208 51.9408 38.448 52.1328 36.528H53.2848L53.1888 42.384L53.3328 48H52.1808L52.0368 47.472C51.9088 47.056 51.7488 46.672 51.5568 46.32C51.3968 45.936 51.1088 45.744 50.6928 45.744C50.4688 45.744 50.1968 45.808 49.8768 45.936C49.5888 46.064 49.2528 46.224 48.8688 46.416C48.0368 46.832 46.9488 47.296 45.6048 47.808C44.2608 48.288 42.6768 48.528 40.8528 48.528ZM55.9597 48.144V46.944L56.3917 46.896C57.5117 46.736 58.4237 46.512 59.1277 46.224C59.8637 45.936 60.4877 45.472 60.9997 44.832C61.5437 44.16 62.0557 43.248 62.5357 42.096L74.1517 13.92H75.7837L87.1117 42.096C87.7517 43.664 88.4397 44.816 89.1757 45.552C89.9117 46.288 90.9197 46.72 92.1997 46.848L93.1597 46.944V48.144L87.2077 48L79.5277 48.144V46.944L80.4877 46.848C81.6077 46.72 82.4077 46.48 82.8877 46.128C83.3677 45.776 83.6077 45.28 83.6077 44.64C83.6077 44 83.3837 43.136 82.9357 42.048L80.4397 35.808H66.9037L64.3117 42.048C64.0877 42.624 63.8957 43.152 63.7357 43.632C63.5757 44.08 63.4957 44.48 63.4957 44.832C63.4957 45.44 63.7517 45.904 64.2637 46.224C64.8077 46.544 65.6877 46.752 66.9037 46.848L67.8637 46.944V48.144L61.7677 48L55.9597 48.144ZM67.5277 34.272H79.8637L73.8157 19.056L67.5277 34.272ZM74.3917 11.52L75.6397 2.88H79.5277L74.9677 11.52H74.3917ZM94.3653 48.144V46.944L95.3253 46.848C96.4453 46.72 97.2933 46.56 97.8693 46.368C98.4773 46.144 98.8933 45.696 99.1173 45.024C99.3413 44.32 99.4533 43.184 99.4533 41.616V20.304C99.4533 18.704 99.3413 17.568 99.1173 16.896C98.8933 16.224 98.4773 15.792 97.8693 15.6C97.2933 15.376 96.4453 15.2 95.3253 15.072L94.3653 14.976V13.776L101.469 13.92H107.997C109.917 13.92 111.709 14.048 113.373 14.304C115.037 14.528 116.493 14.976 117.741 15.648C118.989 16.288 119.965 17.232 120.669 18.48C121.373 19.728 121.725 21.344 121.725 23.328C121.725 26.176 120.653 28.48 118.509 30.24C116.365 32 113.245 32.88 109.149 32.88H103.533V41.616C103.533 43.184 103.661 44.32 103.917 45.024C104.205 45.696 104.701 46.144 105.405 46.368C106.109 46.56 107.101 46.72 108.381 46.848L109.437 46.944V48.144L101.325 48L94.3653 48.144ZM109.869 15.264H103.533V31.44H109.149C111.357 31.44 113.037 31.12 114.189 30.48C115.341 29.84 116.125 28.912 116.541 27.696C116.957 26.48 117.165 25.024 117.165 23.328C117.165 21.504 116.925 20.064 116.445 19.008C115.997 17.92 115.389 17.104 114.621 16.56C113.885 16.016 113.085 15.664 112.221 15.504C111.389 15.344 110.605 15.264 109.869 15.264ZM124.834 48.144V46.944L125.794 46.848C126.914 46.72 127.762 46.56 128.338 46.368C128.946 46.144 129.362 45.696 129.586 45.024C129.81 44.32 129.922 43.184 129.922 41.616V20.304C129.922 18.704 129.81 17.568 129.586 16.896C129.362 16.224 128.946 15.792 128.338 15.6C127.762 15.376 126.914 15.2 125.794 15.072L124.834 14.976V13.776L131.938 13.92H131.986L139.09 13.776V14.976L138.13 15.072C137.042 15.2 136.194 15.376 135.586 15.6C134.978 15.792 134.562 16.224 134.338 16.896C134.114 17.568 134.002 18.704 134.002 20.304V41.616C134.002 43.184 134.114 44.32 134.338 45.024C134.562 45.696 134.978 46.144 135.586 46.368C136.194 46.56 137.042 46.72 138.13 46.848L139.09 46.944V48.144L131.986 48H131.938L124.834 48.144ZM150.896 48.144V46.944L151.952 46.848C153.264 46.72 154.256 46.56 154.928 46.368C155.632 46.144 156.112 45.696 156.368 45.024C156.656 44.32 156.8 43.184 156.8 41.616V15.216H150.032C148.56 15.216 147.392 15.504 146.528 16.08C145.696 16.624 144.96 17.52 144.32 18.768C143.712 20.016 142.992 21.68 142.16 23.76L141.152 23.52L142.352 17.616L142.88 13.776L156.56 13.92H161.12L174.848 13.776L175.376 17.616L176.576 23.52L175.52 23.808C174.784 21.952 174.096 20.384 173.456 19.104C172.848 17.824 172.128 16.864 171.296 16.224C170.464 15.552 169.36 15.216 167.984 15.216H160.88V41.616C160.88 43.184 161.008 44.32 161.264 45.024C161.552 45.696 162.048 46.144 162.752 46.368C163.456 46.56 164.448 46.72 165.728 46.848L166.784 46.944V48.144L158.96 48L150.896 48.144ZM173.382 48.144V46.944L173.814 46.896C174.934 46.736 175.846 46.512 176.55 46.224C177.286 45.936 177.91 45.472 178.422 44.832C178.966 44.16 179.478 43.248 179.958 42.096L191.574 13.92H193.206L204.534 42.096C205.174 43.664 205.862 44.816 206.598 45.552C207.334 46.288 208.342 46.72 209.622 46.848L210.582 46.944V48.144L204.63 48L196.95 48.144V46.944L197.91 46.848C199.03 46.72 199.83 46.48 200.31 46.128C200.79 45.776 201.03 45.28 201.03 44.64C201.03 44 200.806 43.136 200.358 42.048L197.862 35.808H184.326L181.734 42.048C181.51 42.624 181.318 43.152 181.158 43.632C180.998 44.08 180.918 44.48 180.918 44.832C180.918 45.44 181.174 45.904 181.686 46.224C182.23 46.544 183.11 46.752 184.326 46.848L185.286 46.944V48.144L179.19 48L173.382 48.144ZM184.95 34.272H197.286L191.238 19.056L184.95 34.272Z" fill="#FBE3A4"/>
</svg>
